<svg width="91" height="89" viewBox="0 0 91 89" fill="none" xmlns="http://www.w3.org/2000/svg">
<g filter="url(#filter0_d_228_8986)">
<rect x="22.8818" y="15.6904" width="42.665" height="45.9109" fill="#C4C4C4"/>
<rect x="4" y="2" width="83" height="81" rx="8" fill="#7952B3"/>
<ellipse cx="45.186" cy="42.4998" rx="35.3442" ry="33.9963" fill="white"/>
<rect x="31.9248" y="25.6479" width="27.15" height="31.3545" rx="5" fill="#7952B3"/>
<rect x="35.5469" y="32.1533" width="19.8629" height="11.2336" rx="1" fill="white"/>
<rect x="38.46" y="27.4233" width="14.0287" height="2.36496" rx="1" fill="white"/>
<ellipse cx="38.4613" cy="50.0817" rx="2.91441" ry="2.55636" fill="white"/>
<ellipse cx="52.4823" cy="50.0817" rx="2.91441" ry="2.55636" fill="white"/>
<rect x="58.915" y="31.562" width="2.92101" height="6.50365" rx="1" fill="#7952B3"/>
<rect x="29.1206" y="31.562" width="2.92101" height="6.50365" rx="1" fill="#7952B3"/>
<rect x="51.9678" y="56.5854" width="4.80622" height="2.76504" rx="1" fill="#7952B3"/>
<rect x="34.1748" y="56.5854" width="4.80622" height="2.76504" rx="1" fill="#7952B3"/>
</g>
<defs>
<filter id="filter0_d_228_8986" x="0" y="0" width="91" height="89" filterUnits="userSpaceOnUse" color-interpolation-filters="sRGB">
<feFlood flood-opacity="0" result="BackgroundImageFix"/>
<feColorMatrix in="SourceAlpha" type="matrix" values="0 0 0 0 0 0 0 0 0 0 0 0 0 0 0 0 0 0 127 0" result="hardAlpha"/>
<feOffset dy="2"/>
<feGaussianBlur stdDeviation="2"/>
<feComposite in2="hardAlpha" operator="out"/>
<feColorMatrix type="matrix" values="0 0 0 0 0 0 0 0 0 0 0 0 0 0 0 0 0 0 0.15 0"/>
<feBlend mode="normal" in2="BackgroundImageFix" result="effect1_dropShadow_228_8986"/>
<feBlend mode="normal" in="SourceGraphic" in2="effect1_dropShadow_228_8986" result="shape"/>
</filter>
</defs>
</svg>
